{
	"asset":{
		"generator":"Khronos glTF Blender I/O v3.6.27",
		"version":"2.0"
	},
	"extensionsUsed":[
		"KHR_materials_emissive_strength"
	],
	"scene":0,
	"scenes":[
		{
			"extras":{
				"renderman":{
					"object_groups":[
						{
							"name":"collector"
						}
					],
					"light_groups":[
						{
							"name":"All"
						}
					]
				},
				"ats_settings":{
					"num_tiles":[
						5,
						3
					],
					"threads_error":0,
					"prev_engine":"CYCLES",
					"prev_device":"GPU",
					"prev_border":0,
					"prev_threads":1,
					"prev_choice":"256",
					"prev_res":[
						1280,
						720
					],
					"prev_border_res":[
						0.0,
						0.0,
						1.0,
						1.0
					],
					"prev_actual_tile_size":[
						256,
						240
					],
					"first_run":0
				},
				"svg_export":{},
				"rpr":{
					"render":{},
					"thumbnails":{},
					"saved_addon_version":[
						1,
						4,
						0
					]
				},
				"NWBusyDrawing":"",
				"NWLazySource":"Diffuse BSDF",
				"NWLazyTarget":"Emission"
			},
			"name":"Scene",
			"nodes":[
				0
			]
		}
	],
	"nodes":[
		{
			"extras":{
				"renderman":{
					"update_timestamp":1509391267
				}
			},
			"mesh":0,
			"name":"Sphere"
		}
	],
	"materials":[
		{
			"doubleSided":true,
			"emissiveFactor":[
				1,
				1,
				1
			],
			"emissiveTexture":{
				"index":0
			},
			"extensions":{
				"KHR_materials_emissive_strength":{
					"emissiveStrength":2.8000001907348633
				}
			},
			"name":"Material.001",
			"pbrMetallicRoughness":{
				"baseColorFactor":[
					0,
					0,
					0,
					1
				]
			}
		}
	],
	"meshes":[
		{
			"name":"Sphere.001",
			"primitives":[
				{
					"attributes":{
						"POSITION":0,
						"NORMAL":1,
						"TEXCOORD_0":2
					},
					"indices":3,
					"material":0
				}
			]
		}
	],
	"textures":[
		{
			"sampler":0,
			"source":0
		}
	],
	"images":[
		{
			"bufferView":4,
			"mimeType":"image/png",
			"name":"Dots.rot"
		}
	],
	"accessors":[
		{
			"bufferView":0,
			"componentType":5126,
			"count":1920,
			"max":[
				1.000000238418579,
				0.9807852506637573,
				1.0000003576278687
			],
			"min":[
				-0.9999998211860657,
				-1.0096001625061035,
				-0.9999991655349731
			],
			"type":"VEC3"
		},
		{
			"bufferView":1,
			"componentType":5126,
			"count":1920,
			"type":"VEC3"
		},
		{
			"bufferView":2,
			"componentType":5126,
			"count":1920,
			"type":"VEC2"
		},
		{
			"bufferView":3,
			"componentType":5123,
			"count":3060,
			"type":"SCALAR"
		}
	],
	"bufferViews":[
		{
			"buffer":0,
			"byteLength":23040,
			"byteOffset":0,
			"target":34962
		},
		{
			"buffer":0,
			"byteLength":23040,
			"byteOffset":23040,
			"target":34962
		},
		{
			"buffer":0,
			"byteLength":15360,
			"byteOffset":46080,
			"target":34962
		},
		{
			"buffer":0,
			"byteLength":6120,
			"byteOffset":61440,
			"target":34963
		},
		{
			"buffer":0,
			"byteLength":217508,
			"byteOffset":67560
		}
	],
	"samplers":[
		{
			"magFilter":9729,
			"minFilter":9987
		}
	],
	"buffers":[
		{
			"byteLength":285068,
			"uri":"data:application/octet-stream;base64,"
		}
	]
}
